<svg width="1046" height="492" viewBox="0 0 1046 492" fill="none" xmlns="http://www.w3.org/2000/svg">
<path d="M938 22C938 24.2091 936.209 26 934 26C931.791 26 930 24.2091 930 22C930 19.7909 932.5 16 934 14.5C935.5 16 938 19.7909 938 22Z" fill="#B0ACC5"/>
<path d="M112 82C112 86.4183 108.418 90 104 90C99.5817 90 96 86.4183 96 82C96 77.5817 101 69.5 104 66C106.5 69.5 112 77.5817 112 82Z" fill="#B0ACC5"/>
<path d="M1046 231C1046 237.627 1040.63 243 1034 243C1027.37 243 1022 237.627 1022 231C1022 224.373 1028.5 215 1034 206.5C1039.5 215 1046 224.373 1046 231Z" fill="#ADDAFF"/>
<path d="M309 22C309 24.2091 307.209 26 305 26C302.791 26 301 24.2091 301 22C301 19.7909 303 16.5 305 13.5C307 16.5 309 19.7909 309 22Z" fill="#9C6E73"/>
<path d="M50 468C50 472.418 46.4183 476 42 476C37.5817 476 34 472.418 34 468C34 463.582 39 454.5 42 451.5C45 454.5 50 463.582 50 468Z" fill="#B0ACC5"/>
<path d="M988 319C988 321.209 986.209 323 984 323C981.791 323 980 321.209 980 319C980 316.791 982 314.5 984 312C986 314.5 988 316.791 988 319Z" fill="#B0ACC5"/>
<path d="M42 22C42 24.2091 40.2091 26 38 26C35.7909 26 34 24.2091 34 22C34 19.7909 36.5 14 38 12.5C39.5 14 42 19.7909 42 22Z" fill="#9ECBF1"/>
<path d="M782 22C782 28.6274 776.627 34 770 34C763.373 34 758 28.6274 758 22C758 15.3726 765.5 6.5 770 0C774.5 6.5 782 15.3726 782 22Z" fill="#124D73"/>
<path d="M992 111C992 115.418 988.418 119 984 119C979.582 119 976 115.418 976 111C976 106.582 980.5 102 984 96.5C987 102 992 106.582 992 111Z" fill="#E0ECF1"/>
<path d="M50 168C50 172.418 46.4183 176 42 176C37.5817 176 34 172.418 34 168C34 163.582 38.5 156 42 151C45.5 156 50 163.582 50 168Z" fill="#9C6E73"/>
<path d="M26 307.834C26 314.461 20.6274 319.834 14 319.834C7.37258 319.834 2 314.461 2 307.834C2 301.207 6.5 295.334 14 285.334C21.5 295.5 26 301.207 26 307.834Z" fill="#9DB2C0"/>
<path d="M966 468C966 472.418 962.418 476 958 476C953.582 476 950 472.418 950 468C950 463.582 955 456.5 958 450.5C961.5 456.5 966 463.582 966 468Z" fill="#9ECBF1"/>
</svg>