<svg width="111" height="61" viewBox="0 0 111 61" fill="none" xmlns="http://www.w3.org/2000/svg">
<path d="M19.335 11.2123H50.5387" stroke="#332A26"/>
<path d="M71.3412 11.2123L90.4455 11.2123" stroke="#332A26"/>
<path d="M50.3264 11.2123L50.5387 12.2736L50.751 13.335L51.1755 14.1841L51.8123 15.2454L52.6614 16.3068L53.935 17.5804L55.4209 18.6417L57.3313 19.4908L59.454 19.9154H61.789L63.6994 19.7031L64.7608 19.4908L66.0344 19.0663L67.7326 18.2172L68.5817 17.3681L69.1123 16.7313L69.643 16.0945L70.2798 15.0331L70.7044 14.1841L71.1289 13.335L71.3412 12.4859L71.5534 11.2123" stroke="#332A26"/>
<path d="M19.5472 11L20.1841 15.8822L20.8209 18.2172L21.6699 20.5522L22.9436 24.1608L24.854 27.3448L26.7644 29.8921L29.0994 32.4393L32.0712 34.7743L35.2552 37.0144L40.7743 39.3991L47.7792 40.9166L55.2086 41.5669L59.0295 41.5669L63.0626 41.1424L67.3081 40.5056L70.7044 39.3991L73.8884 38.3829L77.2848 37.0144L79.6197 35.6234L81.3179 33.9794L83.2283 31.5902L84.9265 28.7765L86.8369 24.6576L88.3228 20.3218L90.4455 11" stroke="#332A26"/>
<path d="M17.8491 11L18.955 16.498L20.282 21.746L23.3783 28.9933L25.3613 32.4393L27.5805 35.241L30.5781 38.3829L34.2155 40.9888L37.047 42.6283L39.9659 43.7378L43.5158 44.751L47.2644 45.4871L51.2367 46.2369L55.4102 46.6614L59.7923 46.6614L63.9657 46.0246L67.7218 45.3396L71.4779 44.1142L74.8167 42.6283L77.5295 40.9888L80.2422 39.2319L82.209 37.4901L83.9983 34.9865L85.9688 31.4924L87.9593 26.7441L89.5075 21.746L91.7192 11" stroke="black"/>
<path d="M17 11L18.1249 16.8907L19.4748 22.5136L22.6245 30.2785L24.6417 33.9707L26.8992 36.9725L29.9485 40.3388L33.6486 43.1309L36.5289 44.8874L39.4981 46.0762L43.1092 47.5105L46.081 48.3596L48.6283 48.9964L51.3878 49.4209L54.7841 49.6332L57.5436 49.6332L60.0909 49.4209L62.0013 49.2086L64.124 48.7538L67.7326 47.7924L71.5535 46.4795L74.9498 44.8874L77.7093 43.1309L80.4688 41.2485L82.4695 39.3823L84.2897 36.6999L86.2942 32.9561L88.319 27.8687L89.8939 22.5136L92.1437 11" stroke="black"/>
<line x1="17" y1="10.9245" x2="17.8491" y2="10.9245" stroke="black"/>
<path d="M17.8491 11.2123H19.335" stroke="black"/>
<line x1="90.4456" y1="10.9245" x2="91.7192" y2="10.9245" stroke="black"/>
<path d="M21.4536 24.6269L20.8209 25.8589" stroke="black"/>
<path d="M21.4536 24.6269L20.8209 25.8589" stroke="black"/>
<path d="M22.9436 27.9816L22.0945 29.2553" stroke="black"/>
<path d="M24.6417 31.3779L23.7926 32.6516" stroke="black"/>
<path d="M26.3398 33.9252L25.4908 35.1988" stroke="black"/>
<path d="M30.5853 38.1706L29.7362 40.2933" stroke="black"/>
<path d="M33.1326 40.2933L32.708 42.416" stroke="black"/>
<path d="M36.1044 41.9915V44.5387" stroke="black"/>
<path d="M39.9252 43.6896L40.7743 46.6614" stroke="black"/>
<path d="M44.5951 44.9632L45.8687 48.3596" stroke="black"/>
<path d="M48.8406 45.8123L50.1142 49.2086" stroke="black"/>
<path d="M54.3596 46.6614L56.0578 49.6332" stroke="black"/>
<path d="M59.8785 46.6614L62.0012 49.2087" stroke="black"/>
<path d="M64.9731 45.8123L67.5204 47.935" stroke="black"/>
<path d="M70.0676 44.5387L73.0394 45.8123" stroke="black"/>
<path d="M74.313 42.8405L76.8602 43.6896" stroke="black"/>
<path d="M78.5583 40.2933L81.1056 40.7178" stroke="black"/>
<path d="M81.9547 37.7461L83.2283 38.1706" stroke="black"/>
<path d="M83.6528 35.1988L84.9265 35.6233" stroke="black"/>
<path d="M85.7755 31.8025H86.6246" stroke="black"/>
<path d="M87.4738 27.9816H88.3228" stroke="black"/>
<path d="M88.7473 24.1608L89.5964 23.7362" stroke="black"/>
<path d="M90.021 20.3399L90.4455 19.9153" stroke="black"/>
<path d="M28.0381 35.6234L27.189 37.3215" stroke="black"/>
<path d="M19.3308 18.2172L18.6981 19.4492" stroke="black"/>
<path d="M18.6981 14.8209L17.849 15.6699" stroke="black"/>
<path d="M20.1799 21.189L19.5472 22.421" stroke="black"/>
<path d="M34.247 21.0962C34.5259 22.3791 34.456 22.2021 34.0898 23.008C33.1441 22.9254 33.0167 23.1804 32.0756 21.9547C31.6446 20.8644 31.3732 20.178 31.7359 18.2086C32.7183 18.9615 33.816 20.006 34.247 21.0962Z" fill="#868686"/>
<path d="M40.087 22.0379C40.284 22.7426 40.2396 22.6462 40.0674 23.1029C39.5477 23.0815 39.4869 23.2264 38.9301 22.5704C38.6567 21.9765 38.4846 21.6026 38.6145 20.5002C39.1775 20.8927 39.8137 21.444 40.087 22.0379Z" fill="#868686"/>
<path d="M39.7129 27.544C39.5586 28.3698 39.5586 28.2485 39.0954 28.6404C38.4779 28.3698 38.3235 28.4911 38.0148 27.544C38.0148 26.7968 38.0148 26.3264 38.7867 25.244C39.2498 25.9205 39.7129 26.7968 39.7129 27.544Z" fill="#868686"/>
<path d="M46.3001 27.2723C46.4508 28.3194 46.3968 28.1777 45.9218 28.8826C44.9358 28.8959 44.7733 29.12 43.9194 28.1782C43.5872 27.3053 43.3781 26.7557 43.9791 25.0794C44.9291 25.6227 45.968 26.3994 46.3001 27.2723Z" fill="#868686"/>
<path d="M50.6618 24.8628C50.7548 25.7681 50.7258 25.6385 50.5066 26.1271C50.0248 25.9314 49.9495 26.0843 49.5147 25.1193C49.3363 24.3212 49.2239 23.8187 49.4867 22.546C49.9611 23.1986 50.4833 24.0647 50.6618 24.8628Z" fill="#868686"/>
<path d="M55.9425 26.3224C55.858 27.2285 55.8547 27.0958 55.5448 27.5325C55.1102 27.247 55.0067 27.3823 54.7675 26.3513C54.7473 25.5338 54.7346 25.019 55.2395 23.8215C55.5783 24.5538 55.9224 25.5048 55.9425 26.3224Z" fill="#868686"/>
<path d="M64.7455 32.7661C64.4526 33.6392 64.4699 33.5075 63.8884 33.8637C63.2262 33.4781 63.0337 33.5867 62.8184 32.5129C62.9249 31.7021 62.9919 31.1915 64.0222 30.132C64.4514 30.9352 64.852 31.9552 64.7455 32.7661Z" fill="#868686"/>
<path d="M64.6816 26.3964C64.4502 27.2776 64.4675 27.1459 64.0706 27.5264C63.6545 27.1731 63.5235 27.2898 63.4312 26.2322C63.5377 25.4213 63.6047 24.9108 64.3274 23.8109C64.572 24.5898 64.7882 25.5856 64.6816 26.3964Z" fill="#868686"/>
<path d="M69.9373 28.7923C69.9247 29.7032 69.9098 29.5713 69.6161 30.0361C69.1271 29.7932 69.0281 29.938 68.684 28.9337C68.5923 28.121 68.5346 27.6094 68.9714 26.3679C69.3962 27.0651 69.8456 27.9796 69.9373 28.7923Z" fill="#868686"/>
<path d="M72.7595 32.8403C72.7048 33.3781 72.6961 33.301 72.3824 33.5887C71.9072 33.4681 71.802 33.5581 71.5062 32.9817C71.4526 32.5066 71.4188 32.2075 71.9109 31.4551C72.3012 31.8466 72.7058 32.3652 72.7595 32.8403Z" fill="#868686"/>
<path d="M74.0784 25.8859C73.6882 26.9512 73.7148 26.7896 73.0011 27.2083C72.2232 26.7102 71.9874 26.8374 71.7763 25.5071C71.94 24.512 72.0431 23.8854 73.3267 22.616C73.8063 23.6203 74.2421 24.8907 74.0784 25.8859Z" fill="#868686"/>
<path d="M77.4317 22.5893C77.3892 23.7086 77.3791 23.5452 77.077 24.094C76.6078 23.7572 76.5063 23.9276 76.2037 22.6656C76.1411 21.659 76.1017 21.0253 76.5693 19.5324C76.9609 20.4229 77.3692 21.5827 77.4317 22.5893Z" fill="#868686"/>
<path d="M60.0844 29.9313C59.7522 30.7825 59.7787 30.6529 59.2391 30.9786C58.6934 30.5654 58.5156 30.664 58.4206 29.59C58.5844 28.7917 58.6875 28.289 59.6809 27.2876C59.9864 28.1035 60.2481 29.1329 60.0844 29.9313Z" fill="#868686"/>
<path d="M52.7469 30.7581C52.6076 31.4514 52.6051 31.3502 52.1441 31.6889C51.5132 31.4784 51.3594 31.5836 51.0272 30.8005C51.0118 30.1767 51.0021 29.7839 51.7615 28.8609C52.2445 29.4142 52.7315 30.1343 52.7469 30.7581Z" fill="#868686"/>
</svg>
